<svg width="1000" height="1024" viewBox="0 0 1000 1024" fill="none" xmlns="http://www.w3.org/2000/svg">
<path d="M0 1027.52C30.7933 1029.34 61.3453 1039.38 92.1013 1036.34C139.233 1031.67 178.319 996.956 205.165 957.936C232.013 918.916 250.064 874.417 276.676 835.236C303.288 796.055 341.851 760.929 388.892 755.415C450.988 748.136 505.9 792.959 551.479 835.753C597.057 878.548 649.204 925.232 711.68 922.869C772.733 920.557 821.469 871.385 855.115 820.387C888.76 769.389 915.644 711.684 963.718 673.979C974.909 665.2 987.123 657.881 1000 652V1069.78H0V1027.52Z" fill="#00EAE6"/>
<rect x="497" y="-26" width="521" height="1047" fill="#B4EF63"/>
<path d="M580 102V921C548.321 869.001 496.413 829.039 447.995 790.16C387.33 741.449 325.011 683.189 313.832 606.222C295.765 481.863 416.811 379.789 437.203 255.796C445.963 202.525 432.431 147.714 404.011 102H580Z" fill="#6947FF"/>
<path d="M566 72V891C597.679 839.001 649.587 799.039 698.005 760.16C758.67 711.449 820.989 653.189 832.168 576.222C850.235 451.863 729.189 349.789 708.797 225.796C700.037 172.525 713.569 117.714 741.989 72H566Z" fill="#6947FF"/>
<path d="M1000.09 -23H312C341.244 6.88535 361.605 44.9053 385.759 79.3947C413.345 118.789 450.487 156.44 498.095 163.244C555.088 171.391 607.188 133.779 654.711 101.279C702.232 68.7787 762.307 38.6147 814.981 61.852C860.296 81.8454 881.767 135.163 884.619 184.611C887.472 234.059 876.319 283.388 877.472 332.905C878.627 382.421 895.913 436.383 938.933 460.929C957.449 471.495 978.889 475.104 1000.09 473.057V-23Z" fill="#B4EF63"/>
<path d="M618.805 984.685C585.235 981.526 555.717 959.821 534.967 933.245C512.861 904.931 496.896 868.976 464.593 853.262C433.988 838.376 395.923 846.806 368.315 866.709C340.707 886.614 321.8 916.243 305.784 946.274C291.901 972.305 279.545 999.38 263 1023.71H987.375C986.903 992.109 981.104 959.904 973.225 929.433C960.791 881.334 943.135 833.321 911.071 795.374C879.005 757.426 830.308 730.822 780.853 735.542C731.397 740.261 685.117 782.369 685.341 832.049C685.499 867.122 706.971 901.69 697.837 935.554C689.059 968.109 652.376 987.842 618.805 984.685Z" fill="#2A4D92"/>
<path d="M361.299 44.4571C372.392 74.0064 398.032 97.689 428.37 106.402C459.327 115.294 492.646 109.021 523.24 98.9517C553.834 88.8824 583.304 75.0491 614.812 68.3704C695.574 51.2544 785.022 87.3784 831.244 155.78C838.654 166.742 845.171 178.589 855.058 187.382C882.411 211.71 928.167 203.638 954.424 178.13C980.682 152.622 991.098 114.938 995.471 78.5931C998.59 52.6811 998.863 25.5224 993.41 0.143723H355.387C354.099 15.1237 356.014 30.3757 361.299 44.4571Z" fill="#20335E"/>
</svg>
