<svg width="741" height="1010" viewBox="0 0 741 1010" fill="none" xmlns="http://www.w3.org/2000/svg">
<path d="M513.019 819.987L570.989 762.016C546.017 774.639 525.64 795.016 513.019 819.987Z" fill="#8AA0D0"/>
<path d="M592.499 753.455L504.456 841.497C503.212 845.671 502.169 849.929 501.341 854.265L605.267 750.34C600.932 751.169 596.672 752.211 592.499 753.455Z" fill="#8AA0D0"/>
<path d="M499 878.993L499.003 879.204L630.207 748.003L629.993 748C626.697 748 623.428 748.124 620.192 748.364L499.365 869.191C499.125 872.427 499 875.695 499 878.993Z" fill="#8AA0D0"/>
<path d="M500.703 900.107L651.107 749.701C648.285 749.244 645.435 748.875 642.555 748.601L499.603 891.553C499.877 894.433 500.245 897.284 500.703 900.107Z" fill="#8AA0D0"/>
<path d="M505.031 918.38L669.38 754.028C666.901 753.248 664.389 752.543 661.849 751.908L502.909 910.848C503.544 913.388 504.249 915.9 505.031 918.38Z" fill="#8AA0D0"/>
<path d="M511.379 934.632L685.634 760.379C683.426 759.34 681.184 758.363 678.912 757.447L508.448 927.909C509.364 930.183 510.342 932.424 511.379 934.632Z" fill="#8AA0D0"/>
<path d="M519.398 949.215L700.215 768.396C698.239 767.139 696.223 765.936 694.176 764.783L515.784 943.175C516.938 945.221 518.14 947.237 519.398 949.215Z" fill="#8AA0D0"/>
<path d="M528.905 962.308L713.309 777.904C711.542 776.445 709.732 775.037 707.888 773.672L524.672 956.888C526.039 958.731 527.447 960.54 528.905 962.308Z" fill="#8AA0D0"/>
<path d="M539.815 974L725 788.813C723.435 787.163 721.824 785.553 720.175 783.987L534.988 969.173C536.555 970.824 538.164 972.433 539.815 974Z" fill="#8AA0D0"/>
<path d="M552.102 984.315L735.316 801.099C733.951 799.255 732.543 797.445 731.084 795.679L546.68 980.083C548.447 981.54 550.258 982.949 552.102 984.315Z" fill="#8AA0D0"/>
<path d="M565.813 993.203L744.205 814.812C743.051 812.764 741.849 810.749 740.591 808.772L559.773 989.589C561.751 990.848 563.767 992.051 565.813 993.203Z" fill="#8AA0D0"/>
<path d="M581.077 1000.54L751.541 830.076C750.625 827.803 749.647 825.563 748.609 823.355L574.356 997.608C576.564 998.645 578.805 999.624 581.077 1000.54Z" fill="#8AA0D0"/>
<path d="M598.14 1006.08L757.08 847.139C756.444 844.597 755.74 842.085 754.959 839.607L590.608 1003.96C593.088 1004.74 595.6 1005.44 598.14 1006.08Z" fill="#8AA0D0"/>
<path d="M617.435 1009.39L760.385 866.433C760.112 863.553 759.744 860.703 759.287 857.88L608.881 1008.29C611.704 1008.74 614.555 1009.11 617.435 1009.39Z" fill="#8AA0D0"/>
<path d="M629.993 1009.99C633.292 1009.99 636.56 1009.86 639.797 1009.62L760.624 888.796C760.864 885.56 760.989 882.291 760.989 878.993L760.987 878.781L629.783 1009.98L629.993 1009.99Z" fill="#8AA0D0"/>
<path d="M667.491 1004.53L755.534 916.488C756.778 912.316 757.82 908.057 758.648 903.721L654.722 1007.65C659.058 1006.82 663.318 1005.78 667.491 1004.53Z" fill="#8AA0D0"/>
<path d="M746.971 937.999L689 995.969C713.971 983.348 734.349 962.969 746.971 937.999Z" fill="#8AA0D0"/>
<path d="M382.319 789.319C373.931 797.707 360.331 797.707 351.943 789.319L137.291 574.667C128.903 566.279 128.903 552.679 137.291 544.291C145.679 535.903 159.279 535.903 167.667 544.291L382.319 758.943C390.707 767.331 390.707 780.931 382.319 789.319V789.319Z" stroke="#65CDE6" stroke-width="2.66667" stroke-miterlimit="10"/>
<path d="M187.333 424.333V401.667H164.667V379H142V356.333H119.333V333.667H96.6667V311H74" stroke="#65CDE6" stroke-width="4" stroke-miterlimit="10" stroke-linecap="round"/>
<path d="M544.32 562.319H544.319C535.931 570.707 522.331 570.707 513.943 562.319L299.291 347.667C290.903 339.279 290.903 325.679 299.291 317.291C307.679 308.903 321.279 308.903 329.667 317.291L544.32 531.943C552.708 540.331 552.708 553.931 544.32 562.319V562.319Z" stroke="#65CDE6" stroke-width="5.33333" stroke-miterlimit="10"/>
<path d="M271 -46L522.556 205.555" stroke="#7ED5F7" stroke-width="2.66667" stroke-miterlimit="10"/>
<path d="M271 -33.4066L522.556 218.149" stroke="#7ED5F7" stroke-width="2.66667" stroke-miterlimit="10"/>
<path d="M271 -20.812L522.556 230.744" stroke="#7ED5F7" stroke-width="2.66667" stroke-miterlimit="10"/>
<path d="M271 -8.21869L522.556 243.337" stroke="#7ED5F7" stroke-width="2.66667" stroke-miterlimit="10"/>
<path d="M271 4.37603L522.556 255.932" stroke="#7ED5F7" stroke-width="2.66667" stroke-miterlimit="10"/>
<path d="M271 16.9694L522.556 268.525" stroke="#7ED5F7" stroke-width="2.66667" stroke-miterlimit="10"/>
<path d="M271 29.564L522.556 281.12" stroke="#7ED5F7" stroke-width="2.66667" stroke-miterlimit="10"/>
<path d="M271 42.1574L522.556 293.713" stroke="#7ED5F7" stroke-width="2.66667" stroke-miterlimit="10"/>
<path d="M271 54.752L522.556 306.308" stroke="#7ED5F7" stroke-width="2.66667" stroke-miterlimit="10"/>
<path d="M271 67.3467L522.556 318.901" stroke="#7ED5F7" stroke-width="2.66667" stroke-miterlimit="10"/>
<path d="M271 79.9399L522.556 331.496" stroke="#7ED5F7" stroke-width="2.66667" stroke-miterlimit="10"/>
<path d="M271 92.5334L522.556 344.089" stroke="#7ED5F7" stroke-width="2.66667" stroke-miterlimit="10"/>
<path d="M271 105.128L522.556 356.684" stroke="#7ED5F7" stroke-width="2.66667" stroke-miterlimit="10"/>
<path d="M271 117.721L522.556 369.277" stroke="#7ED5F7" stroke-width="2.66667" stroke-miterlimit="10"/>
<path d="M271 130.316L522.556 381.872" stroke="#7ED5F7" stroke-width="2.66667" stroke-miterlimit="10"/>
<path d="M271 142.909L522.556 394.465" stroke="#7ED5F7" stroke-width="2.66667" stroke-miterlimit="10"/>
<path d="M271 155.504L522.556 407.06" stroke="#7ED5F7" stroke-width="2.66667" stroke-miterlimit="10"/>
<path d="M271 168.099L522.556 419.653" stroke="#7ED5F7" stroke-width="2.66667" stroke-miterlimit="10"/>
<path d="M271 180.692L522.556 432.248" stroke="#7ED5F7" stroke-width="2.66667" stroke-miterlimit="10"/>
<path d="M271 193.287L522.556 444.841" stroke="#7ED5F7" stroke-width="2.66667" stroke-miterlimit="10"/>
<path d="M271 205.88L522.556 457.436" stroke="#7ED5F7" stroke-width="2.66667" stroke-miterlimit="10"/>
<path d="M271 218.475L522.556 470.029" stroke="#7ED5F7" stroke-width="2.66667" stroke-miterlimit="10"/>
<path d="M271 231.068L522.556 482.624" stroke="#7ED5F7" stroke-width="2.66667" stroke-miterlimit="10"/>
<path d="M271 243.663L522.556 495.217" stroke="#7ED5F7" stroke-width="2.66667" stroke-miterlimit="10"/>
<path d="M130.667 992.333V969.667H108V947H85.3335V924.333H62.6668V901.667H40.0002V879H17.3335" stroke="#65CDE6" stroke-width="4" stroke-miterlimit="10" stroke-linecap="round"/>
<path d="M115.333 1007.67V985H92.6667V962.333H70V939.667H47.3333V917H24.6667V894.333H2" stroke="#65CDE6" stroke-width="4" stroke-miterlimit="10" stroke-linecap="round"/>
<path d="M694.269 681.966C685.879 690.354 672.279 690.354 663.891 681.966L449.239 467.314C440.851 458.926 440.851 445.326 449.239 436.936C457.627 428.548 471.227 428.548 479.615 436.936L694.269 651.588C702.657 659.978 702.657 673.578 694.269 681.966V681.966Z" stroke="#65CDE6" stroke-width="2.66667" stroke-miterlimit="10"/>
</svg>
