<svg width="208" height="391" viewBox="0 0 208 391" fill="none" xmlns="http://www.w3.org/2000/svg">
<g opacity="0.5">
<path d="M24.1783 364.571C27.9404 364.571 30.9946 367.622 30.9946 371.386C30.9946 375.15 27.9404 378.2 24.1783 378.2C20.4129 378.2 17.3619 375.15 17.3619 371.386C17.3619 367.622 20.4129 364.571 24.1783 364.571Z" fill="#8AA0D0"/>
<path d="M24.1783 312.491C27.9404 312.491 30.9946 315.538 30.9946 319.304C30.9946 323.066 27.9404 326.117 24.1783 326.117C20.4129 326.117 17.3619 323.066 17.3619 319.304C17.3619 315.538 20.4129 312.491 24.1783 312.491Z" fill="#8AA0D0"/>
<path d="M24.1783 260.406C27.9404 260.406 30.9946 263.461 30.9946 267.223C30.9946 270.985 27.9404 274.039 24.1783 274.039C20.4129 274.039 17.3619 270.985 17.3619 267.223C17.3619 263.461 20.4129 260.406 24.1783 260.406Z" fill="#8AA0D0"/>
<path d="M24.1783 208.325C27.9404 208.325 30.9946 211.376 30.9946 215.141C30.9946 218.903 27.9404 221.954 24.1783 221.954C20.4129 221.954 17.3619 218.903 17.3619 215.141C17.3619 211.376 20.4129 208.325 24.1783 208.325Z" fill="#8AA0D0"/>
<path d="M24.1783 156.243C27.9404 156.243 30.9946 159.294 30.9946 163.06C30.9946 166.822 27.9404 169.873 24.1783 169.873C20.4129 169.873 17.3619 166.822 17.3619 163.06C17.3619 159.294 20.4129 156.243 24.1783 156.243Z" fill="#8AA0D0"/>
<path d="M24.1783 104.162C27.9404 104.162 30.9946 107.213 30.9946 110.975C30.9946 114.741 27.9404 117.792 24.1783 117.792C20.4129 117.792 17.3619 114.741 17.3619 110.975C17.3619 107.213 20.4129 104.162 24.1783 104.162Z" fill="#8AA0D0"/>
<path d="M24.1783 52.0813C27.9404 52.0813 30.9946 55.1324 30.9946 58.8977C30.9946 62.6598 27.9404 65.7109 24.1783 65.7109C20.4129 65.7109 17.3619 62.6598 17.3619 58.8977C17.3619 55.1324 20.4129 52.0813 24.1783 52.0813Z" fill="#8AA0D0"/>
<path d="M24.1783 1.25163e-06C27.9404 1.08718e-06 30.9946 3.05108 30.9946 6.81319C30.9946 10.5785 27.9404 13.6296 24.1783 13.6296C20.4129 13.6296 17.3619 10.5785 17.3619 6.81319C17.3619 3.05108 20.4129 1.41621e-06 24.1783 1.25163e-06Z" fill="#8AA0D0"/>
<path d="M59.5437 364.571C63.3059 364.571 66.3569 367.622 66.3569 371.386C66.3569 375.15 63.3059 378.2 59.5437 378.2C55.7816 378.2 52.7274 375.15 52.7274 371.386C52.7274 367.622 55.7816 364.571 59.5437 364.571Z" fill="#8AA0D0"/>
<path d="M59.5437 312.491C63.3059 312.491 66.3569 315.538 66.3569 319.304C66.3569 323.066 63.3059 326.117 59.5437 326.117C55.7816 326.117 52.7274 323.066 52.7274 319.304C52.7274 315.538 55.7816 312.491 59.5437 312.491Z" fill="#8AA0D0"/>
<path d="M59.5437 260.406C63.3059 260.406 66.3569 263.461 66.3569 267.223C66.3569 270.985 63.3059 274.039 59.5437 274.039C55.7816 274.039 52.7274 270.985 52.7274 267.223C52.7274 263.461 55.7816 260.406 59.5437 260.406Z" fill="#8AA0D0"/>
<path d="M59.5437 208.325C63.3059 208.325 66.3569 211.376 66.3569 215.141C66.3569 218.903 63.3059 221.954 59.5437 221.954C55.7816 221.954 52.7274 218.903 52.7274 215.141C52.7274 211.376 55.7816 208.325 59.5437 208.325Z" fill="#8AA0D0"/>
<path d="M59.5437 156.243C63.3059 156.243 66.3569 159.294 66.3569 163.06C66.3569 166.822 63.3059 169.873 59.5437 169.873C55.7816 169.873 52.7274 166.822 52.7274 163.06C52.7274 159.294 55.7816 156.243 59.5437 156.243Z" fill="#8AA0D0"/>
<path d="M59.5437 104.162C63.3059 104.162 66.3569 107.213 66.3569 110.975C66.3569 114.741 63.3059 117.792 59.5437 117.792C55.7816 117.792 52.7274 114.741 52.7274 110.975C52.7274 107.213 55.7816 104.162 59.5437 104.162Z" fill="#8AA0D0"/>
<path d="M59.5437 52.0813C63.3059 52.0813 66.3569 55.1324 66.3569 58.8977C66.3569 62.6598 63.3059 65.7109 59.5437 65.7109C55.7816 65.7109 52.7274 62.6598 52.7274 58.8977C52.7274 55.1324 55.7816 52.0813 59.5437 52.0813Z" fill="#8AA0D0"/>
<path d="M59.5437 1.25149e-06C63.3059 1.08704e-06 66.3569 3.05108 66.3569 6.81319C66.3569 10.5785 63.3059 13.6296 59.5437 13.6296C55.7816 13.6296 52.7274 10.5785 52.7274 6.81319C52.7274 3.05108 55.7816 1.41594e-06 59.5437 1.25149e-06Z" fill="#8AA0D0"/>
<path d="M94.909 364.571C98.6711 364.571 101.722 367.622 101.722 371.386C101.722 375.15 98.6711 378.2 94.909 378.2C91.1436 378.2 88.0926 375.15 88.0926 371.386C88.0926 367.622 91.1436 364.571 94.909 364.571Z" fill="#8AA0D0"/>
<path d="M94.909 312.491C98.6711 312.491 101.722 315.538 101.722 319.304C101.722 323.066 98.6711 326.117 94.909 326.117C91.1436 326.117 88.0926 323.066 88.0926 319.304C88.0926 315.538 91.1436 312.491 94.909 312.491Z" fill="#8AA0D0"/>
<path d="M94.909 260.406C98.6711 260.406 101.722 263.461 101.722 267.223C101.722 270.985 98.6711 274.039 94.909 274.039C91.1436 274.039 88.0926 270.985 88.0926 267.223C88.0926 263.461 91.1436 260.406 94.909 260.406Z" fill="#8AA0D0"/>
<path d="M94.909 208.325C98.6711 208.325 101.722 211.376 101.722 215.141C101.722 218.903 98.6711 221.954 94.909 221.954C91.1436 221.954 88.0926 218.903 88.0926 215.141C88.0926 211.376 91.1436 208.325 94.909 208.325Z" fill="#8AA0D0"/>
<path d="M94.909 156.243C98.6711 156.243 101.722 159.294 101.722 163.06C101.722 166.822 98.6711 169.873 94.909 169.873C91.1436 169.873 88.0926 166.822 88.0926 163.06C88.0926 159.294 91.1436 156.243 94.909 156.243Z" fill="#8AA0D0"/>
<path d="M94.909 104.162C98.6711 104.162 101.722 107.213 101.722 110.975C101.722 114.741 98.6711 117.792 94.909 117.792C91.1436 117.792 88.0926 114.741 88.0926 110.975C88.0926 107.213 91.1436 104.162 94.909 104.162Z" fill="#8AA0D0"/>
<path d="M94.909 52.0813C98.6711 52.0813 101.722 55.1324 101.722 58.8977C101.722 62.6598 98.6711 65.7109 94.909 65.7109C91.1436 65.7109 88.0926 62.6598 88.0926 58.8977C88.0926 55.1324 91.1436 52.0813 94.909 52.0813Z" fill="#8AA0D0"/>
<path d="M94.909 1.25149e-06C98.6711 1.08704e-06 101.722 3.05108 101.722 6.81319C101.722 10.5785 98.6711 13.6296 94.909 13.6296C91.1436 13.6296 88.0926 10.5785 88.0926 6.81319C88.0926 3.05108 91.1436 1.41608e-06 94.909 1.25149e-06Z" fill="#8AA0D0"/>
<path d="M130.27 364.571C134.036 364.571 137.087 367.622 137.087 371.386C137.087 375.15 134.036 378.2 130.27 378.2C126.508 378.2 123.457 375.15 123.457 371.386C123.457 367.622 126.508 364.571 130.27 364.571Z" fill="#8AA0D0"/>
<path d="M130.27 312.491C134.036 312.491 137.087 315.538 137.087 319.304C137.087 323.066 134.036 326.117 130.27 326.117C126.508 326.117 123.457 323.066 123.457 319.304C123.457 315.538 126.508 312.491 130.27 312.491Z" fill="#8AA0D0"/>
<path d="M130.27 260.406C134.036 260.406 137.087 263.461 137.087 267.223C137.087 270.985 134.036 274.039 130.27 274.039C126.508 274.039 123.457 270.985 123.457 267.223C123.457 263.461 126.508 260.406 130.27 260.406Z" fill="#8AA0D0"/>
<path d="M130.27 208.325C134.036 208.325 137.087 211.376 137.087 215.141C137.087 218.903 134.036 221.954 130.27 221.954C126.508 221.954 123.457 218.903 123.457 215.141C123.457 211.376 126.508 208.325 130.27 208.325Z" fill="#8AA0D0"/>
<path d="M130.27 156.243C134.036 156.243 137.087 159.294 137.087 163.06C137.087 166.822 134.036 169.873 130.27 169.873C126.508 169.873 123.457 166.822 123.457 163.06C123.457 159.294 126.508 156.243 130.27 156.243Z" fill="#8AA0D0"/>
<path d="M130.27 104.162C134.036 104.162 137.087 107.213 137.087 110.975C137.087 114.741 134.036 117.792 130.27 117.792C126.508 117.792 123.457 114.741 123.457 110.975C123.457 107.213 126.508 104.162 130.27 104.162Z" fill="#8AA0D0"/>
<path d="M130.27 52.0813C134.036 52.0813 137.087 55.1324 137.087 58.8977C137.087 62.6598 134.036 65.7109 130.27 65.7109C126.508 65.7109 123.457 62.6598 123.457 58.8977C123.457 55.1324 126.508 52.0813 130.27 52.0813Z" fill="#8AA0D0"/>
<path d="M130.27 1.25163e-06C134.036 1.08704e-06 137.087 3.05108 137.087 6.81319C137.087 10.5785 134.036 13.6296 130.27 13.6296C126.508 13.6296 123.457 10.5785 123.457 6.81319C123.457 3.05108 126.508 1.41607e-06 130.27 1.25163e-06Z" fill="#8AA0D0"/>
<path d="M165.639 364.571C169.401 364.571 172.452 367.622 172.452 371.386C172.452 375.15 169.401 378.2 165.639 378.2C161.874 378.2 158.822 375.15 158.822 371.386C158.822 367.622 161.874 364.571 165.639 364.571Z" fill="#8AA0D0"/>
<path d="M165.639 312.491C169.401 312.491 172.452 315.538 172.452 319.304C172.452 323.066 169.401 326.117 165.639 326.117C161.874 326.117 158.822 323.066 158.822 319.304C158.822 315.538 161.874 312.491 165.639 312.491Z" fill="#8AA0D0"/>
<path d="M165.639 260.406C169.401 260.406 172.452 263.461 172.452 267.223C172.452 270.985 169.401 274.039 165.639 274.039C161.874 274.039 158.822 270.985 158.822 267.223C158.822 263.461 161.874 260.406 165.639 260.406Z" fill="#8AA0D0"/>
<path d="M165.639 208.325C169.401 208.325 172.452 211.376 172.452 215.141C172.452 218.903 169.401 221.954 165.639 221.954C161.874 221.954 158.822 218.903 158.822 215.141C158.822 211.376 161.874 208.325 165.639 208.325Z" fill="#8AA0D0"/>
<path d="M165.639 156.243C169.401 156.243 172.452 159.294 172.452 163.06C172.452 166.822 169.401 169.873 165.639 169.873C161.874 169.873 158.822 166.822 158.822 163.06C158.822 159.294 161.874 156.243 165.639 156.243Z" fill="#8AA0D0"/>
<path d="M165.639 104.162C169.401 104.162 172.452 107.213 172.452 110.975C172.452 114.741 169.401 117.792 165.639 117.792C161.874 117.792 158.822 114.741 158.822 110.975C158.822 107.213 161.874 104.162 165.639 104.162Z" fill="#8AA0D0"/>
<path d="M165.639 52.0813C169.401 52.0813 172.452 55.1324 172.452 58.8977C172.452 62.6598 169.401 65.7109 165.639 65.7109C161.874 65.7109 158.822 62.6598 158.822 58.8977C158.822 55.1324 161.874 52.0813 165.639 52.0813Z" fill="#8AA0D0"/>
<path d="M165.639 -1.40073e-05C169.401 -1.41718e-05 172.452 3.05107 172.452 6.81318C172.452 10.5785 169.401 13.6296 165.639 13.6296C161.874 13.6296 158.822 10.5785 158.822 6.81318C158.822 3.05107 161.874 -1.38427e-05 165.639 -1.40073e-05Z" fill="#8AA0D0"/>
<path d="M201.001 364.571C204.766 364.571 207.817 367.622 207.817 371.386C207.817 375.15 204.766 378.2 201.001 378.2C197.235 378.2 194.187 375.15 194.187 371.386C194.187 367.622 197.235 364.571 201.001 364.571Z" fill="#8AA0D0"/>
<path d="M201.001 312.491C204.766 312.491 207.817 315.538 207.817 319.304C207.817 323.066 204.766 326.117 201.001 326.117C197.235 326.117 194.187 323.066 194.187 319.304C194.187 315.538 197.235 312.491 201.001 312.491Z" fill="#8AA0D0"/>
<path d="M201.001 260.406C204.766 260.406 207.817 263.461 207.817 267.223C207.817 270.985 204.766 274.039 201.001 274.039C197.235 274.039 194.187 270.985 194.187 267.223C194.187 263.461 197.235 260.406 201.001 260.406Z" fill="#8AA0D0"/>
<path d="M201.001 208.325C204.766 208.325 207.817 211.376 207.817 215.141C207.817 218.903 204.766 221.954 201.001 221.954C197.235 221.954 194.187 218.903 194.187 215.141C194.187 211.376 197.235 208.325 201.001 208.325Z" fill="#8AA0D0"/>
<path d="M201.001 156.243C204.766 156.243 207.817 159.294 207.817 163.06C207.817 166.822 204.766 169.873 201.001 169.873C197.235 169.873 194.187 166.822 194.187 163.06C194.187 159.294 197.235 156.243 201.001 156.243Z" fill="#8AA0D0"/>
<path d="M201.001 104.162C204.766 104.162 207.817 107.213 207.817 110.975C207.817 114.741 204.766 117.792 201.001 117.792C197.235 117.792 194.187 114.741 194.187 110.975C194.187 107.213 197.235 104.162 201.001 104.162Z" fill="#8AA0D0"/>
<path d="M201.001 52.0813C204.766 52.0813 207.817 55.1324 207.817 58.8977C207.817 62.6598 204.766 65.7109 201.001 65.7109C197.235 65.7109 194.187 62.6598 194.187 58.8977C194.187 55.1324 197.235 52.0813 201.001 52.0813Z" fill="#8AA0D0"/>
<path d="M201.001 -1.40072e-05C204.766 -1.41718e-05 207.817 3.05107 207.817 6.81318C207.817 10.5785 204.766 13.6296 201.001 13.6296C197.235 13.6296 194.187 10.5785 194.187 6.81318C194.187 3.05107 197.235 -1.38426e-05 201.001 -1.40072e-05Z" fill="#8AA0D0"/>
</g>
</svg>
