<svg width="27" height="27" viewBox="0 0 27 27" fill="none" xmlns="http://www.w3.org/2000/svg">
<g opacity="0.5">
<path d="M0.323975 0.565308V26.9713H26.73V0.565308H0.323975ZM14.1058 23.1542C13.7168 23.9448 12.9735 24.4645 12.1129 24.7151C10.7898 25.0189 9.52507 24.8459 8.58344 24.2806C7.95316 23.8941 7.46126 23.2993 7.12797 22.6142C7.79791 22.205 8.46616 21.7932 9.1361 21.384C9.15382 21.3916 9.20613 21.4869 9.27701 21.6101C9.53266 22.0396 9.75373 22.3433 10.1883 22.556C10.6152 22.7011 11.5509 22.7947 11.9129 22.0438C12.1339 21.6624 12.0631 20.4103 12.0631 19.0527C12.0631 16.9189 12.0732 14.8205 12.0732 12.6605H14.5428C14.5428 14.9285 14.5555 17.2024 14.5428 19.467C14.5479 20.855 14.6686 22.1164 14.1058 23.1533V23.1542ZM24.3523 22.4564C23.4942 25.3935 18.7068 25.4888 16.7948 23.5482C16.3907 23.0917 16.1375 22.853 15.8962 22.3256C16.9129 21.7409 16.9129 21.7409 17.9018 21.1688C18.4393 21.9949 18.9363 22.4488 19.8298 22.6344C21.0423 22.7821 22.2623 22.3661 21.9889 21.0786C21.708 20.0264 19.5066 19.7707 18.0081 18.646C16.4868 17.6242 16.1308 15.1419 17.3804 13.7236C17.7972 13.1988 18.5076 12.8073 19.2527 12.6191L20.0306 12.5187C21.524 12.4883 22.4581 12.8824 23.1432 13.6485C23.3339 13.8417 23.4891 14.0501 23.7811 14.5024C22.9854 15.0095 22.9879 15.0044 21.848 15.7427C21.6042 15.2179 21.2009 14.8888 20.7739 14.7462C20.1116 14.5454 19.2754 14.7639 19.1025 15.4642C19.0426 15.6802 19.0552 15.8811 19.1506 16.2371C19.4189 16.8497 20.32 17.1155 21.1283 17.4867C23.4554 18.4309 24.2409 19.4417 24.4341 20.6466C24.6198 21.6835 24.3886 22.356 24.354 22.4564H24.3523Z" fill="#E0E0E0"/>
</g>
</svg>
