<svg width="27" height="27" viewBox="0 0 27 27" fill="none" xmlns="http://www.w3.org/2000/svg">
<g opacity="0.5">
<path d="M0.324219 0.565308V26.9713H26.7302V0.565308H0.324219ZM14.106 23.1542C13.7171 23.9448 12.9737 24.4645 12.1131 24.7151C10.7901 25.0189 9.52531 24.8459 8.58369 24.2806C7.95341 23.8941 7.4615 23.2993 7.12822 22.6142C7.79816 22.205 8.46641 21.7932 9.13634 21.384C9.15406 21.3916 9.20638 21.4869 9.27725 21.6101C9.53291 22.0396 9.75397 22.3433 10.1885 22.556C10.6154 22.7011 11.5512 22.7947 11.9131 22.0438C12.1342 21.6624 12.0633 20.4103 12.0633 19.0527C12.0633 16.9189 12.0734 14.8205 12.0734 12.6605H14.5431C14.5431 14.9285 14.5557 17.2024 14.5431 19.467C14.5482 20.855 14.6688 22.1164 14.106 23.1533V23.1542ZM24.3525 22.4564C23.4944 25.3935 18.707 25.4888 16.7951 23.5482C16.3909 23.0917 16.1378 22.853 15.8965 22.3256C16.9132 21.7409 16.9132 21.7409 17.9021 21.1688C18.4395 21.9949 18.9365 22.4488 19.83 22.6344C21.0425 22.7821 22.2626 22.3661 21.9892 21.0786C21.7082 20.0264 19.5069 19.7707 18.0084 18.646C16.4871 17.6242 16.131 15.1419 17.3806 13.7236C17.7974 13.1988 18.5079 12.8073 19.2529 12.6191L20.0308 12.5187C21.5243 12.4883 22.4583 12.8824 23.1434 13.6485C23.3341 13.8417 23.4894 14.0501 23.7813 14.5024C22.9857 15.0095 22.9882 15.0044 21.8483 15.7427C21.6044 15.2179 21.2011 14.8888 20.7742 14.7462C20.1118 14.5454 19.2757 14.7639 19.1027 15.4642C19.0428 15.6802 19.0555 15.8811 19.1508 16.2371C19.4191 16.8497 20.3202 17.1155 21.1286 17.4867C23.4556 18.4309 24.2412 19.4417 24.4344 20.6466C24.62 21.6835 24.3888 22.356 24.3542 22.4564H24.3525Z" fill="#555555"/>
</g>
</svg>
