<svg width="672" height="264" viewBox="0 0 672 264" fill="none" xmlns="http://www.w3.org/2000/svg">
<path d="M341.921 31.4482C373.064 34.3805 400.447 54.5286 419.697 79.1981C440.204 105.481 455.015 138.857 484.983 153.443C513.375 167.262 548.688 159.436 574.3 140.961C599.912 122.484 617.451 94.98 632.309 67.1036C645.188 42.9403 656.651 17.8075 672 -4.77869L0 -4.77862C0.437868 24.5569 5.81733 54.4518 13.1263 82.7367C24.6619 127.385 41.0413 171.954 70.787 207.178C100.534 242.404 145.71 267.099 191.589 262.718C237.469 258.338 280.403 219.251 280.195 173.135C280.049 140.577 260.13 108.489 268.603 77.0544C276.747 46.8352 310.777 28.5175 341.921 31.4482Z" fill="#6947FF"/>
<path d="M45.1162 36.0028C54.1263 60.0104 74.9514 79.2516 99.5917 86.3308C124.736 93.5552 151.797 88.4584 176.647 80.2775C201.495 72.0965 225.431 60.8575 251.022 55.4314C316.618 41.5254 389.268 70.8746 426.811 126.448C432.829 135.355 438.122 144.98 446.152 152.124C468.369 171.889 505.533 165.331 526.859 144.607C548.185 123.883 556.645 93.266 560.198 63.7369C562.731 42.6844 562.953 20.6191 558.523 0H40.3144C39.2683 12.1706 40.8234 24.5623 45.1162 36.0028Z" fill="#B4EF63"/>
</svg>
