<svg width="51" height="27" viewBox="0 0 51 27" fill="none" xmlns="http://www.w3.org/2000/svg">
<g opacity="0.5">
<path d="M6.52243 0V15.9944C6.52243 17.5938 6.91657 18.8251 7.70486 19.6883C8.49315 20.5515 9.65015 20.9831 11.1759 20.9831C12.7016 20.9831 13.8713 20.5515 14.685 19.6883C15.4987 18.8251 15.9056 17.5938 15.9056 15.9944V0H22.428V15.9563C22.428 18.3427 21.9194 20.3611 20.9023 22.0113C19.8851 23.6615 18.512 24.9055 16.7829 25.7433C15.0791 26.5811 13.172 27 11.0614 27C8.95086 27 7.05643 26.5938 5.37814 25.7814C3.72529 24.9436 2.41571 23.6996 1.44943 22.0494C0.483143 20.3738 0 18.3427 0 15.9563V0H6.52243Z" fill="#555555"/>
<path d="M43.4096 26.7334L37.9551 18.5458L33.1491 26.7334H25.7494L34.3316 13.1382L25.5587 0H33.1491L38.5273 8.07334L43.257 0H50.6567L42.1508 13.481L51 26.7334H43.4096Z" fill="#555555"/>
</g>
</svg>
